<?xml version="1.0" encoding="UTF-8" standalone="no"?>
<!-- Created with Keyshape -->
<svg xmlns="http://www.w3.org/2000/svg" viewBox="0 0 64 64" width="512" height="512" opacity="1">
    <ellipse id="_a0" rx="28" ry="28" stroke="none" fill="#eef7f9" transform="translate(31.5775,30.9744) translate(0,0) translate(0,0)"/>
    <g id="dNA" stroke="none" stroke-width="1" fill="none" fill-rule="evenodd" opacity="0" transform="translate(4.0168,17.2244) translate(0,0) scale(0.2,0.2) translate(0,0)">
        <path id="Line-Copy" stroke="#EDB527" stroke-width="4" stroke-linecap="round" d="M38.5,44.5L38.5,49.5"/>
        <path id="Line-Copy-15" stroke="#009DD9" stroke-width="4" stroke-linecap="round" d="M89.5,80.5L89.5,94.5"/>
        <path id="Line-Copy-9" stroke="#EDB527" stroke-width="4" stroke-linecap="round" d="M89.5,60.5L89.5,75.5"/>
        <path id="Line-Copy-13" stroke="#009DD9" stroke-width="4" stroke-linecap="round" d="M68.5,55.5L68.5,66.5"/>
        <path id="Line-Copy-16" stroke="#4F9E3E" stroke-width="4" stroke-linecap="round" d="M100.5,75.5L100.5,86.5"/>
        <path id="Line-Copy-28" stroke="#D14D15" stroke-width="4" stroke-linecap="round" d="M197.5,45.5L197.5,59.5"/>
        <path id="Line-Copy-4" stroke="#4AA33C" stroke-width="4" stroke-linecap="round" d="M78.5,66.5L78.5,87.5"/>
        <path id="Line-Copy-14" stroke="#D14D15" stroke-width="4" stroke-linecap="round" d="M78.5,47.5L78.5,61.5"/>
        <path id="Line-Copy-30" stroke="#D14D15" stroke-width="4" stroke-linecap="round" d="M208.5,55.5L208.5,69.5"/>
        <path id="Line-Copy-17" stroke="#4AA33C" stroke-width="4" stroke-linecap="round" d="M121.5,91.5L121.5,97.5"/>
        <path id="Line-Copy-31" stroke="#009DD9" stroke-width="4" stroke-linecap="round" d="M218.5,71.5L218.5,82.5"/>
        <path id="Line-Copy-27" stroke="#4AA33C" stroke-width="4" stroke-linecap="round" d="M197.5,64.5L197.5,85.5"/>
        <path id="Line-Copy-29" stroke="#4AA33C" stroke-width="4" stroke-linecap="round" d="M208.5,74.5L208.5,95.5"/>
        <path id="Line-Copy-25" stroke="#009DD9" stroke-width="4" stroke-linecap="round" d="M186.5,54.5L186.5,65.5"/>
        <path id="Path-2-Copy" d="M17,97.856C33.6115,101.294,40.0694,41.9978,68.4359,41.9978C96.8024,41.9978,99.5846,97.6928,124.108,97.6928C150.201,97.6928,155.778,41,184.997,41C214.215,41,221.854,97.6928,240.743,97.6928C259.631,97.6928,262.738,69.3464,266,69.3464" stroke="#444444" stroke-width="4"/>
        <path id="Path-2-Copy-2" d="M15,56.788C20.8281,47.86,27.9246,41.0032,37.5397,41.0032C65.8913,41.0032,68.672,97,93.1828,97C119.262,97,124.836,40,154.039,40C183.243,40,190.877,97,209.756,97C228.635,97,231.739,68.5,235,68.5" stroke="#444444" stroke-width="4"/>
        <path id="Line-Copy-24" stroke="#EDB527" stroke-width="4" stroke-linecap="round" d="M155.5,41.5L155.5,46.5"/>
        <path id="Line-Copy-2" stroke="#009DD9" stroke-width="4" stroke-linecap="round" d="M38.5,55.5L38.5,66.5"/>
        <path id="Line-Copy-6" stroke="#D14D15" stroke-width="4" stroke-linecap="round" d="M100.5,91.5L100.5,94.5"/>
        <path id="Line-Copy-18" stroke="#D14D15" stroke-width="4" stroke-linecap="round" d="M121.5,72.5L121.5,86.5"/>
        <path id="Line-Copy-5" stroke="#D14D15" stroke-width="4" stroke-linecap="round" d="M25.5,65.5L25.5,90.5"/>
        <path id="Line" stroke="#4F9E3E" stroke-width="4" stroke-linecap="round" d="M25.5,48.5L25.5,59.5"/>
        <path id="Line-Copy-21" stroke="#D14D15" stroke-width="4" stroke-linecap="round" d="M144.5,60.5L145,81"/>
        <path id="Line-Copy-22" stroke="#4F9E3E" stroke-width="4" stroke-linecap="round" d="M144.5,43.5L144.5,54.5"/>
        <path id="Line-Copy-12" stroke="#EDB527" stroke-width="4" stroke-linecap="round" d="M68.5,44.5L68.5,49.5"/>
        <path id="Line-Copy-23" stroke="#009DD9" stroke-width="4" stroke-linecap="round" d="M155.5,52.5L155.5,63.5"/>
        <path id="Line-Copy-26" stroke="#EDB527" stroke-width="4" stroke-linecap="round" d="M186.5,43.5L186.5,48.5"/>
        <path id="Line-Copy-19" stroke="#009DD9" stroke-width="4" stroke-linecap="round" d="M132.5,59.5L132.5,73.5"/>
        <path id="Line-Copy-20" stroke="#EDB527" stroke-width="4" stroke-linecap="round" d="M132.5,78.5L132.5,93.5"/>
        <path id="Line-Copy-32" stroke="#EDB527" stroke-width="4" stroke-linecap="round" d="M218.5,86.5L218.5,96.5"/>
    </g>
    <g id="dNA-2" stroke="none" stroke-width="1" fill="none" fill-rule="evenodd" opacity="0" transform="translate(17.95,29.6244) scale(0.1,0.1)">
        <path id="Line-Copy-41" stroke="#EDB527" stroke-width="4" stroke-linecap="round" d="M38.5,44.5L38.5,49.5"/>
        <path id="Line-Copy-42" stroke="#009DD9" stroke-width="4" stroke-linecap="round" d="M89.5,80.5L89.5,94.5"/>
        <path id="Line-Copy-43" stroke="#EDB527" stroke-width="4" stroke-linecap="round" d="M89.5,60.5L89.5,75.5"/>
        <path id="Line-Copy-44" stroke="#009DD9" stroke-width="4" stroke-linecap="round" d="M68.5,55.5L68.5,66.5"/>
        <path id="Line-Copy-45" stroke="#4F9E3E" stroke-width="4" stroke-linecap="round" d="M100.5,75.5L100.5,86.5"/>
        <path id="Line-Copy-46" stroke="#D14D15" stroke-width="4" stroke-linecap="round" d="M197.5,45.5L197.5,59.5"/>
        <path id="Line-Copy-47" stroke="#4AA33C" stroke-width="4" stroke-linecap="round" d="M78.5,66.5L78.5,87.5"/>
        <path id="Line-Copy-48" stroke="#D14D15" stroke-width="4" stroke-linecap="round" d="M78.5,47.5L78.5,61.5"/>
        <path id="Line-Copy-49" stroke="#D14D15" stroke-width="4" stroke-linecap="round" d="M208.5,55.5L208.5,69.5"/>
        <path id="Line-Copy-50" stroke="#4AA33C" stroke-width="4" stroke-linecap="round" d="M121.5,91.5L121.5,97.5"/>
        <path id="Line-Copy-51" stroke="#009DD9" stroke-width="4" stroke-linecap="round" d="M218.5,71.5L218.5,82.5"/>
        <path id="Line-Copy-52" stroke="#4AA33C" stroke-width="4" stroke-linecap="round" d="M197.5,64.5L197.5,85.5"/>
        <path id="Line-Copy-53" stroke="#4AA33C" stroke-width="4" stroke-linecap="round" d="M208.5,74.5L208.5,95.5"/>
        <path id="Line-Copy-54" stroke="#009DD9" stroke-width="4" stroke-linecap="round" d="M186.5,54.5L186.5,65.5"/>
        <path id="Path-2-Copy-4" d="M17,97.856C33.6115,101.294,40.0694,41.9978,68.4359,41.9978C96.8024,41.9978,99.5846,97.6928,124.108,97.6928C150.201,97.6928,155.778,41,184.997,41C214.215,41,221.854,97.6928,240.743,97.6928C259.631,97.6928,262.738,69.3464,266,69.3464" stroke="#444444" stroke-width="4"/>
        <path id="Path-2-Copy-5" d="M15,56.788C20.8281,47.86,27.9246,41.0032,37.5397,41.0032C65.8913,41.0032,68.672,97,93.1828,97C119.262,97,124.836,40,154.039,40C183.243,40,190.877,97,209.756,97C228.635,97,231.739,68.5,235,68.5" stroke="#444444" stroke-width="4"/>
        <path id="Line-Copy-55" stroke="#EDB527" stroke-width="4" stroke-linecap="round" d="M155.5,41.5L155.5,46.5"/>
        <path id="Line-Copy-56" stroke="#009DD9" stroke-width="4" stroke-linecap="round" d="M38.5,55.5L38.5,66.5"/>
        <path id="Line-Copy-57" stroke="#D14D15" stroke-width="4" stroke-linecap="round" d="M100.5,91.5L100.5,94.5"/>
        <path id="Line-Copy-58" stroke="#D14D15" stroke-width="4" stroke-linecap="round" d="M121.5,72.5L121.5,86.5"/>
        <path id="Line-Copy-59" stroke="#D14D15" stroke-width="4" stroke-linecap="round" d="M25.5,65.5L25.5,90.5"/>
        <path id="Line-3" stroke="#4F9E3E" stroke-width="4" stroke-linecap="round" d="M25.5,48.5L25.5,59.5"/>
        <path id="Line-Copy-60" stroke="#D14D15" stroke-width="4" stroke-linecap="round" d="M144.5,60.5L145,81"/>
        <path id="Line-Copy-61" stroke="#4F9E3E" stroke-width="4" stroke-linecap="round" d="M144.5,43.5L144.5,54.5"/>
        <path id="Line-Copy-62" stroke="#EDB527" stroke-width="4" stroke-linecap="round" d="M68.5,44.5L68.5,49.5"/>
        <path id="Line-Copy-63" stroke="#009DD9" stroke-width="4" stroke-linecap="round" d="M155.5,52.5L155.5,63.5"/>
        <path id="Line-Copy-64" stroke="#EDB527" stroke-width="4" stroke-linecap="round" d="M186.5,43.5L186.5,48.5"/>
        <path id="Line-Copy-65" stroke="#009DD9" stroke-width="4" stroke-linecap="round" d="M132.5,59.5L132.5,73.5"/>
        <path id="Line-Copy-66" stroke="#EDB527" stroke-width="4" stroke-linecap="round" d="M132.5,78.5L132.5,93.5"/>
        <path id="Line-Copy-67" stroke="#EDB527" stroke-width="4" stroke-linecap="round" d="M218.5,86.5L218.5,96.5"/>
    </g>
    <g id="dNA-3" stroke="none" stroke-width="1" fill="none" fill-rule="evenodd" opacity="0" transform="translate(17.95,8.67445) scale(0.1,0.1)">
        <path id="Line-Copy-68" stroke="#EDB527" stroke-width="4" stroke-linecap="round" d="M38.5,44.5L38.5,49.5"/>
        <path id="Line-Copy-69" stroke="#009DD9" stroke-width="4" stroke-linecap="round" d="M89.5,80.5L89.5,94.5"/>
        <path id="Line-Copy-70" stroke="#EDB527" stroke-width="4" stroke-linecap="round" d="M89.5,60.5L89.5,75.5"/>
        <path id="Line-Copy-71" stroke="#009DD9" stroke-width="4" stroke-linecap="round" d="M68.5,55.5L68.5,66.5"/>
        <path id="Line-Copy-72" stroke="#4F9E3E" stroke-width="4" stroke-linecap="round" d="M100.5,75.5L100.5,86.5"/>
        <path id="Line-Copy-73" stroke="#D14D15" stroke-width="4" stroke-linecap="round" d="M197.5,45.5L197.5,59.5"/>
        <path id="Line-Copy-74" stroke="#4AA33C" stroke-width="4" stroke-linecap="round" d="M78.5,66.5L78.5,87.5"/>
        <path id="Line-Copy-75" stroke="#D14D15" stroke-width="4" stroke-linecap="round" d="M78.5,47.5L78.5,61.5"/>
        <path id="Line-Copy-76" stroke="#D14D15" stroke-width="4" stroke-linecap="round" d="M208.5,55.5L208.5,69.5"/>
        <path id="Line-Copy-77" stroke="#4AA33C" stroke-width="4" stroke-linecap="round" d="M121.5,91.5L121.5,97.5"/>
        <path id="Line-Copy-78" stroke="#009DD9" stroke-width="4" stroke-linecap="round" d="M218.5,71.5L218.5,82.5"/>
        <path id="Line-Copy-79" stroke="#4AA33C" stroke-width="4" stroke-linecap="round" d="M197.5,64.5L197.5,85.5"/>
        <path id="Line-Copy-80" stroke="#4AA33C" stroke-width="4" stroke-linecap="round" d="M208.5,74.5L208.5,95.5"/>
        <path id="Line-Copy-81" stroke="#009DD9" stroke-width="4" stroke-linecap="round" d="M186.5,54.5L186.5,65.5"/>
        <path id="Path-2-Copy-6" d="M17,97.856C33.6115,101.294,40.0694,41.9978,68.4359,41.9978C96.8024,41.9978,99.5846,97.6928,124.108,97.6928C150.201,97.6928,155.778,41,184.997,41C214.215,41,221.854,97.6928,240.743,97.6928C259.631,97.6928,262.738,69.3464,266,69.3464" stroke="#444444" stroke-width="4"/>
        <path id="Path-2-Copy-7" d="M15,56.788C20.8281,47.86,27.9246,41.0032,37.5397,41.0032C65.8913,41.0032,68.672,97,93.1828,97C119.262,97,124.836,40,154.039,40C183.243,40,190.877,97,209.756,97C228.635,97,231.739,68.5,235,68.5" stroke="#444444" stroke-width="4"/>
        <path id="Line-Copy-82" stroke="#EDB527" stroke-width="4" stroke-linecap="round" d="M155.5,41.5L155.5,46.5"/>
        <path id="Line-Copy-83" stroke="#009DD9" stroke-width="4" stroke-linecap="round" d="M38.5,55.5L38.5,66.5"/>
        <path id="Line-Copy-84" stroke="#D14D15" stroke-width="4" stroke-linecap="round" d="M100.5,91.5L100.5,94.5"/>
        <path id="Line-Copy-85" stroke="#D14D15" stroke-width="4" stroke-linecap="round" d="M121.5,72.5L121.5,86.5"/>
        <path id="Line-Copy-86" stroke="#D14D15" stroke-width="4" stroke-linecap="round" d="M25.5,65.5L25.5,90.5"/>
        <path id="Line-4" stroke="#4F9E3E" stroke-width="4" stroke-linecap="round" d="M25.5,48.5L25.5,59.5"/>
        <path id="Line-Copy-87" stroke="#D14D15" stroke-width="4" stroke-linecap="round" d="M144.5,60.5L145,81"/>
        <path id="Line-Copy-88" stroke="#4F9E3E" stroke-width="4" stroke-linecap="round" d="M144.5,43.5L144.5,54.5"/>
        <path id="Line-Copy-89" stroke="#EDB527" stroke-width="4" stroke-linecap="round" d="M68.5,44.5L68.5,49.5"/>
        <path id="Line-Copy-90" stroke="#009DD9" stroke-width="4" stroke-linecap="round" d="M155.5,52.5L155.5,63.5"/>
        <path id="Line-Copy-91" stroke="#EDB527" stroke-width="4" stroke-linecap="round" d="M186.5,43.5L186.5,48.5"/>
        <path id="Line-Copy-92" stroke="#009DD9" stroke-width="4" stroke-linecap="round" d="M132.5,59.5L132.5,73.5"/>
        <path id="Line-Copy-93" stroke="#EDB527" stroke-width="4" stroke-linecap="round" d="M132.5,78.5L132.5,93.5"/>
        <path id="Line-Copy-94" stroke="#EDB527" stroke-width="4" stroke-linecap="round" d="M218.5,86.5L218.5,96.5"/>
    </g>
    <g id="dNA-4" stroke="none" stroke-width="1" fill="none" fill-rule="evenodd" opacity="0" transform="translate(17.95,39.5744) scale(0.1,0.1)">
        <path id="Line-Copy-95" stroke="#EDB527" stroke-width="4" stroke-linecap="round" d="M38.5,44.5L38.5,49.5"/>
        <path id="Line-Copy-96" stroke="#009DD9" stroke-width="4" stroke-linecap="round" d="M89.5,80.5L89.5,94.5"/>
        <path id="Line-Copy-97" stroke="#EDB527" stroke-width="4" stroke-linecap="round" d="M89.5,60.5L89.5,75.5"/>
        <path id="Line-Copy-98" stroke="#009DD9" stroke-width="4" stroke-linecap="round" d="M68.5,55.5L68.5,66.5"/>
        <path id="Line-Copy-99" stroke="#4F9E3E" stroke-width="4" stroke-linecap="round" d="M100.5,75.5L100.5,86.5"/>
        <path id="Line-Copy-100" stroke="#D14D15" stroke-width="4" stroke-linecap="round" d="M197.5,45.5L197.5,59.5"/>
        <path id="Line-Copy-101" stroke="#4AA33C" stroke-width="4" stroke-linecap="round" d="M78.5,66.5L78.5,87.5"/>
        <path id="Line-Copy-102" stroke="#D14D15" stroke-width="4" stroke-linecap="round" d="M78.5,47.5L78.5,61.5"/>
        <path id="Line-Copy-103" stroke="#D14D15" stroke-width="4" stroke-linecap="round" d="M208.5,55.5L208.5,69.5"/>
        <path id="Line-Copy-104" stroke="#4AA33C" stroke-width="4" stroke-linecap="round" d="M121.5,91.5L121.5,97.5"/>
        <path id="Line-Copy-105" stroke="#009DD9" stroke-width="4" stroke-linecap="round" d="M218.5,71.5L218.5,82.5"/>
        <path id="Line-Copy-106" stroke="#4AA33C" stroke-width="4" stroke-linecap="round" d="M197.5,64.5L197.5,85.5"/>
        <path id="Line-Copy-107" stroke="#4AA33C" stroke-width="4" stroke-linecap="round" d="M208.5,74.5L208.5,95.5"/>
        <path id="Line-Copy-108" stroke="#009DD9" stroke-width="4" stroke-linecap="round" d="M186.5,54.5L186.5,65.5"/>
        <path id="Path-2-Copy-8" d="M17,97.856C33.6115,101.294,40.0694,41.9978,68.4359,41.9978C96.8024,41.9978,99.5846,97.6928,124.108,97.6928C150.201,97.6928,155.778,41,184.997,41C214.215,41,221.854,97.6928,240.743,97.6928C259.631,97.6928,262.738,69.3464,266,69.3464" stroke="#444444" stroke-width="4"/>
        <path id="Path-2-Copy-9" d="M15,56.788C20.8281,47.86,27.9246,41.0032,37.5397,41.0032C65.8913,41.0032,68.672,97,93.1828,97C119.262,97,124.836,40,154.039,40C183.243,40,190.877,97,209.756,97C228.635,97,231.739,68.5,235,68.5" stroke="#444444" stroke-width="4"/>
        <path id="Line-Copy-109" stroke="#EDB527" stroke-width="4" stroke-linecap="round" d="M155.5,41.5L155.5,46.5"/>
        <path id="Line-Copy-110" stroke="#009DD9" stroke-width="4" stroke-linecap="round" d="M38.5,55.5L38.5,66.5"/>
        <path id="Line-Copy-111" stroke="#D14D15" stroke-width="4" stroke-linecap="round" d="M100.5,91.5L100.5,94.5"/>
        <path id="Line-Copy-112" stroke="#D14D15" stroke-width="4" stroke-linecap="round" d="M121.5,72.5L121.5,86.5"/>
        <path id="Line-Copy-113" stroke="#D14D15" stroke-width="4" stroke-linecap="round" d="M25.5,65.5L25.5,90.5"/>
        <path id="Line-5" stroke="#4F9E3E" stroke-width="4" stroke-linecap="round" d="M25.5,48.5L25.5,59.5"/>
        <path id="Line-Copy-114" stroke="#D14D15" stroke-width="4" stroke-linecap="round" d="M144.5,60.5L145,81"/>
        <path id="Line-Copy-115" stroke="#4F9E3E" stroke-width="4" stroke-linecap="round" d="M144.5,43.5L144.5,54.5"/>
        <path id="Line-Copy-116" stroke="#EDB527" stroke-width="4" stroke-linecap="round" d="M68.5,44.5L68.5,49.5"/>
        <path id="Line-Copy-117" stroke="#009DD9" stroke-width="4" stroke-linecap="round" d="M155.5,52.5L155.5,63.5"/>
        <path id="Line-Copy-118" stroke="#EDB527" stroke-width="4" stroke-linecap="round" d="M186.5,43.5L186.5,48.5"/>
        <path id="Line-Copy-119" stroke="#009DD9" stroke-width="4" stroke-linecap="round" d="M132.5,59.5L132.5,73.5"/>
        <path id="Line-Copy-120" stroke="#EDB527" stroke-width="4" stroke-linecap="round" d="M132.5,78.5L132.5,93.5"/>
        <path id="Line-Copy-121" stroke="#EDB527" stroke-width="4" stroke-linecap="round" d="M218.5,86.5L218.5,96.5"/>
    </g>
    <g id="RNA" stroke="none" stroke-width="1" fill="none" fill-rule="evenodd" opacity="0" transform="translate(3.5,18.9925) scale(0.2,0.2)">
        <path id="Line-Copy-3" stroke="#EDB527" stroke-width="4" stroke-linecap="round" d="M40.0893,35L40.0893,40"/>
        <path id="Line-Copy-7" stroke="#009DD9" stroke-width="4" stroke-linecap="round" d="M91.0893,71L91.0893,85"/>
        <path id="Line-Copy-8" stroke="#009DD9" stroke-width="4" stroke-linecap="round" d="M70.5893,46.5L70.5893,57.5"/>
        <path id="Line-Copy-10" stroke="#4AA33C" stroke-width="4" stroke-linecap="round" d="M80.0893,57L80.0893,78"/>
        <path id="Line-Copy-11" stroke="#4AA33C" stroke-width="4" stroke-linecap="round" d="M199.589,55.5L199.589,76.5"/>
        <path id="Line-Copy-33" stroke="#4AA33C" stroke-width="4" stroke-linecap="round" d="M210.589,65.5L210.589,86.5"/>
        <path id="Line-Copy-34" stroke="#009DD9" stroke-width="4" stroke-linecap="round" d="M188.589,45.5L188.589,56.5"/>
        <path id="Path-2-Copy-3" d="M17,47.7348C22.8364,38.8351,29.9432,32,39.5721,32C67.9644,32,70.7492,87.8191,95.2952,87.8191C121.412,87.8191,126.993,31,156.239,31C185.484,31,193.13,87.8191,212.036,87.8191C230.942,87.8191,234.051,59.4096,237.316,59.4096" stroke="#444444" stroke-width="4"/>
        <path id="Line-Copy-35" stroke="#EDB527" stroke-width="4" stroke-linecap="round" d="M157.589,32.5L157.589,37.5"/>
        <path id="Line-Copy-36" stroke="#D14D15" stroke-width="4" stroke-linecap="round" d="M102.089,82L102.089,85"/>
        <path id="Line-Copy-37" stroke="#D14D15" stroke-width="4" stroke-linecap="round" d="M123.089,63L123.089,77"/>
        <path id="Line-2" stroke="#4F9E3E" stroke-width="4" stroke-linecap="round" d="M27.5893,39.5L27.5893,50.5"/>
        <path id="Line-Copy-38" stroke="#4F9E3E" stroke-width="4" stroke-linecap="round" d="M146.589,34.5L146.589,45.5"/>
        <path id="Line-Copy-39" stroke="#009DD9" stroke-width="4" stroke-linecap="round" d="M134.089,50L134.089,64"/>
        <path id="Line-Copy-40" stroke="#EDB527" stroke-width="4" stroke-linecap="round" d="M220.089,77L220.089,87"/>
    </g>
    <g id="1" stroke="none" stroke-width="1" fill="none" fill-rule="evenodd" opacity="1" transform="translate(12.8775,10.0194) translate(0,0) scale(0.2,0.2) translate(2,0)">
        <path id="Rectangle" d="M77,46L106,46L106,162C106,170.162,101.167,174.243,91.5,174.243C81.8333,174.243,77,170.162,77,162L77,46Z" stroke="#444444" stroke-width="4" fill="#FFFFFF"/>
        <rect id="Rectangle-2" stroke="#444444" stroke-width="4" fill="#FFFFFF" width="41" height="22" transform="translate(0,0) translate(71,36)"/>
    </g>
    <g id="_a1" opacity="0" transform="translate(31.4178,30.7744) translate(-7.5,-12.8)">
        <path d="M150,323C155.52,323,160,318.52,160,313C160,307.48,155.52,303,150,303C144.48,303,140,307.48,140,313C140,318.52,144.48,323,150,323ZM150,323" fill="#444444" transform="translate(0,0) scale(0.05,0.05)"/>
        <path d="M204.684,247.238C227.887,233.141,247.094,213.297,260.234,189.848C273.164,166.773,280,140.664,280,114.34L280,58.2812C291.641,54.1523,300,43.0352,300,30L300,10C300,4.47656,295.523,0,290,0L10,0C4.47656,0,0,4.47656,0,10L0,30C0,43.0352,8.35937,54.1523,20,58.2812L20,114.34C20,140.664,26.8359,166.773,39.7656,189.848C52.9062,213.297,72.1172,233.145,95.3203,247.238C98.2852,249.039,100.059,252.316,100.059,256C100.059,259.688,98.2852,262.961,95.3203,264.766C72.1172,278.859,52.9062,298.703,39.7656,322.152C26.8359,345.227,20,371.336,20,397.66L20,453.719C8.35937,457.848,0,468.965,0,482L0,502C0,507.523,4.47656,512,10,512L290,512C295.523,512,300,507.523,300,502L300,482C300,468.965,291.641,457.848,280,453.719L280,397.66C280,371.336,273.164,345.227,260.234,322.152C247.094,298.703,227.883,278.855,204.68,264.762C201.715,262.961,199.941,259.684,199.941,256C199.941,252.312,201.715,249.039,204.684,247.238ZM20,20L280,20L280,30C280,35.5156,275.516,40,270,40L30,40C24.4844,40,20,35.5156,20,30ZM280,492L20,492L20,482C20,476.484,24.4844,472,30,472L270,472C275.516,472,280,476.484,280,482ZM194.301,281.855C235.437,306.848,260,350.141,260,397.66L260,452L40,452L40,397.66C40,350.141,64.5625,306.848,105.699,281.855C114.691,276.398,120.059,266.73,120.059,256C120.059,245.27,114.691,235.602,105.699,230.145C64.5625,205.152,40,161.859,40,114.34L40,60L260,60L260,114.34C260,161.859,235.438,205.152,194.301,230.145C185.309,235.602,179.941,245.27,179.941,256C179.941,266.73,185.309,276.398,194.301,281.855ZM194.301,281.855" fill="#444444" transform="translate(0,0) scale(0.05,0.05)"/>
        <path d="M157.969,346.461C156.082,343.945,153.121,342.461,149.977,342.461C149.977,342.461,149.973,342.461,149.969,342.461C146.828,342.461,143.867,343.937,141.98,346.445C138.211,351.461,133.516,355.723,128.027,359.125C116.574,366.023,106.344,370.336,97.3125,374.145C77.2891,382.59,60,389.883,60,417.602L60,422C60,427.523,64.4766,432,70,432L230,432C235.523,432,240,427.523,240,422L240,417.602C240,389.898,222.668,382.574,202.602,374.09C193.496,370.238,183.176,365.879,171.578,358.898C166.262,355.598,161.684,351.41,157.969,346.461ZM219.605,412L80.3906,412C81.9141,402.758,88.2148,399.687,105.086,392.574C114.27,388.699,125.695,383.883,138.402,376.227C138.434,376.203,138.469,376.184,138.5,376.164C142.648,373.598,146.48,370.664,149.961,367.395C153.355,370.586,157.074,373.437,161.094,375.93C161.129,375.949,161.164,375.973,161.199,375.992C174.043,383.727,185.559,388.598,194.813,392.512C211.754,399.672,218.078,402.758,219.605,412ZM219.605,412" fill="#444444" transform="translate(0,0) scale(0.05,0.05)"/>
        <path d="M240,114.398L240,96C240,92.3633,238.027,89.0156,234.848,87.2539C231.668,85.4883,227.785,85.5937,224.699,87.5195C202.277,101.535,176.449,108.941,150,108.941C123.555,108.941,97.7227,101.535,75.3008,87.5195C72.2148,85.5937,68.332,85.4922,65.1523,87.2539C61.9727,89.0156,60,92.3633,60,96L60,114.398C60,131.695,66.6797,150.312,79.3125,168.234C91.5547,185.602,108.535,201.113,128.422,213.102C132.461,215.613,136.418,219.176,140,223.48L140,273C140,278.523,144.477,283,150,283C155.52,283,160,278.523,160,273L160,223.5C163.648,219.145,167.738,215.5,171.973,212.875C212.664,188.332,240,148.766,240,114.398ZM161.598,195.773C161.566,195.797,161.531,195.812,161.5,195.836C157.512,198.301,153.648,201.352,150.035,204.859C146.531,201.43,142.809,198.488,138.906,196.07C138.871,196.047,138.836,196.027,138.801,196.004C103.629,174.82,80,142.027,80,114.398L80,112.926C101.762,123.441,125.652,128.941,150,128.941C174.348,128.941,198.238,123.441,220,112.926L220,114.398C220,141.594,195.984,175.055,161.598,195.773ZM161.598,195.773" fill="#444444" transform="translate(0,0) scale(0.05,0.05)"/>
    </g>
    <script><![CDATA[/*
 KeyshapeJS v1.1.0 (c) 2018-2019 Pixofield Ltd | pixofield.com/keyshapejs/mit-license */
window.KeyshapeJS=function(){function t(a){return"undefined"!==typeof a}function x(a,b){return a&&0==a.indexOf(b)}function H(a){if(!isFinite(a))throw Error("Non-finite value");}function R(a){if(14>=a)return 16;var b=S[a];b||(b=t(ca[a])?0|(a.toLowerCase().indexOf("color")==a.length-5?48:0):1);return b}function K(a){return 0<=a?Math.pow(a,1/3):-Math.pow(-a,1/3)}function da(a,b,c,d){if(0==a)return 0==b?b=-d/c:(a=Math.sqrt(c*c-4*b*d),d=(-c+a)/(2*b),0<=d&&1>=d?b=d:(d=(-c-a)/(2*b),b=0<=d&&1>=d?d:0)),b;
var e=c/a-b*b/(a*a)/3;c=b*b*b/(a*a*a)/13.5-b*c/(a*a)/3+d/a;var n=c*c/4+e*e*e/27;b=-b/(3*a);if(0>=n){if(0==e&&0==c)return-K(d/a);a=Math.sqrt(c*c/4-n);d=Math.acos(-c/2/a);c=Math.cos(d/3);d=Math.sqrt(3)*Math.sin(d/3);a=K(a);e=2*a*c+b;if(0<=e&&1>=e)return e;e=-a*(c+d)+b;if(0<=e&&1>=e)return e;e=a*(d-c)+b;if(0<=e&&1>=e)return e}else{a=K(-c/2+Math.sqrt(n));c=K(-c/2-Math.sqrt(n));d=a+c+b;if(0<=d&&1>=d)return d;d=-(a+c)/2+b;if(0<=d&&1>=d)return d}return 0}function ea(a,b){if(48==a&&"number"===typeof b)return"rgba("+
(b>>>24)+","+(b>>>16&255)+","+(b>>>8&255)+","+(b&255)/255+")";if(64==a)return b=b.map(function(a){return a+"px"}),b.join(",");if(96==a){a="";for(var c=b.length,d=0;d<c;d+=2)a+=b[d],a+=b[d+1].join(",");return a}if(80==a){if(0==b[0])return"none";a="";c=b.length;for(d=0;d<c;)a+=T[b[d]],1==b[d]?a+="("+b[d+1]+") ":5==b[d]?(a+="("+b[d+1]+"px "+b[d+2]+"px "+b[d+3]+"px rgba("+(b[d+4]>>>24)+","+(b[d+4]>>16&255)+","+(b[d+4]>>8&255)+","+(b[d+4]&255)/255+")) ",d+=3):a=2==b[d]?a+("("+b[d+1]+"px) "):7==b[d]?a+
("("+b[d+1]+"deg) "):a+("("+(0>b[d+1]?0:b[d+1])+") "),d+=2;return a}return 32==a?b+"px":b}function y(a){return 0>=a?0:255<=a?255:a}function fa(a,b,c,d){if(16==a||32==a)return(c-b)*d+b;if(0==a)return.5>d?b:c;if(48==a){if("number"===typeof b&&"number"===typeof c){var e=1-d;return(y(e*(b>>>24)+d*(c>>>24))<<24|y(e*(b>>>16&255)+d*(c>>>16&255))<<16|y(e*(b>>>8&255)+d*(c>>>8&255))<<8|y(e*(b&255)+d*(c&255)))>>>0}return.5>d?b:c}if(64==a){0==b.length&&(b=[0]);0==c.length&&(c=[0]);var n=b.length;b.length!=c.length&&
(n=b.length*c.length);var l=[];for(a=0;a<n;++a){var f=b[a%b.length];var h=(c[a%c.length]-f)*d+f;0>h&&(h=0);l.push(h)}return l}if(96==a){if(b.length!=c.length)return.5>d?b:c;n=b.length;l=[];for(a=0;a<n;a+=2){if(b[a]!==c[a])return.5>d?b:c;l[a]=b[a];l[a+1]=[];for(f=0;f<b[a+1].length;++f)l[a+1].push((c[a+1][f]-b[a+1][f])*d+b[a+1][f])}return l}if(80==a){n=b.length;if(n!=c.length)return.5>d?b:c;l=[];for(a=0;a<n;){if(b[a]!=c[a]||1==b[a])return.5>d?b:c;l[a]=b[a];l[a+1]=(c[a+1]-b[a+1])*d+b[a+1];if(5==b[a]){l[a+
2]=(c[a+2]-b[a+2])*d+b[a+2];l[a+3]=(c[a+3]-b[a+3])*d+b[a+3];e=1-d;var g=b[a+4],q=c[a+4];h=e*(g>>>24)+d*(q>>>24);var m=e*(g>>16&255)+d*(q>>16&255);f=e*(g>>8&255)+d*(q>>8&255);e=e*(g&255)+d*(q&255);l[a+4]=(y(m)<<16|y(f)<<8|y(e))+16777216*(y(h)|0);a+=3}a+=2}return l}return 0}function U(a,b){a:{var c=a+b[2];var d=b[4].length;for(var e=0;e<d;++e)if(c<b[4][e]){c=e;break a}c=d-1}d=b[2];e=b[4][c-1]-d;a=(a-e)/(b[4][c]-d-e);if(b[6]&&b[6].length>c-1)if(d=b[6][c-1],1==d[0])if(0>=a)a=0;else if(1<=a)a=1;else{e=
d[1];var n=d[3];a=da(3*e-3*n+1,-6*e+3*n,3*e,-a);a=3*a*(1-a)*(1-a)*d[2]+3*a*a*(1-a)*d[4]+a*a*a}else 2==d[0]?(d=d[1],a=Math.ceil(a*d)/d):3==d[0]&&(d=d[1],a=Math.floor(a*d)/d);return fa(b[1]&240,b[5][c-1],b[5][c],a)}function L(){u||(v=(new Date).getTime()+V)}function O(a){if(a||!E){for(var b=!1,c=0;c<w.length;++c)w[c].J(a)&&(b=!0);if(a)for(;0<I.length;)if(a=I.shift(),c=a[0],1==a[1])c.onfinish&&(c.onfinish(),b=!0),c.I();else if(2==a[1]&&c.onloop)c.onloop();return b}}function W(){L();O(!0)&&!u?(E=!0,M(W)):
E=!1}function N(){E||(E=!0,M(W))}function X(a,b){var c=[];a.split(b).forEach(function(a){c.push(parseFloat(a))});return c}function A(a){-1==a.indexOf(",")&&(a=a.replace(" ",","));return X(a,",")}function Y(a){a._ks||(a._ks={});if(!a._ks.transform){for(var b=a._ks.transform=[],c=0;14>=c;++c)b[c]=0;b[10]=1;b[11]=1;if(a=a.getAttribute("transform")){a=a.trim().split(") ");for(c=a.length-2;0<=c;--c)if(x(a[c],"translate(")){for(var d=0;d<c;d++)a.shift();break}c=a.shift();x(c,"translate(")&&(c=A(c.substring(10)),
b[1]=c[0],b[2]=t(c[1])?c[1]:0,c=a.shift());x(c,"rotate(")&&(c=A(c.substring(7)),b[6]=c[0],c=a.shift());x(c,"skewX(")&&(c=A(c.substring(6)),b[7]=c[0],c=a.shift());x(c,"skewY(")&&(c=A(c.substring(6)),b[8]=c[0],c=a.shift());x(c,"scale(")&&(c=A(c.substring(6)),b[10]=c[0],b[11]=t(c[1])?c[1]:c[0],c=a.shift());x(c,"translate(")&&(c=A(c.substring(10)),b[13]=c[0],b[14]=t(c[1])?c[1]:0)}}}function Z(a){this.l=a;this.A=[];this.C=[];this.v=0;this.s=this.a=this.c=null;this.h=this.f=this.g=0;this.b=1;this.i=this.F=
this.o=!1}function J(a,b,c){b=a[b];void 0===b&&(b=a[c]);return b}function ha(a){return Array.isArray(a)?a:x(a,"cubic-bezier(")?(a=a.substring(13,a.length-1).split(","),[1,parseFloat(a[0]),parseFloat(a[1]),parseFloat(a[2]),parseFloat(a[3])]):x(a,"steps(")?(a=a.substring(6,a.length-1).split(","),[a[1]&&"start"==a[1].trim()?2:3,parseFloat(a[0])]):[0]}function ia(a){a=a.trim();return x(a,"#")?(parseInt(a.substring(1),16)<<8)+255:x(a,"rgba(")?(a=a.substring(5,a.length-1),a=a.split(","),(parseInt(a[0],
10)<<24)+(parseInt(a[1],10)<<16)+(parseInt(a[2],10)<<8)+255*parseFloat(a[3])<<0):a}function aa(a){!1===a.i&&(w.push(a),a.i=!0,!1!==a.l.autoplay&&a.play());return this}function P(a){if(!0===a.i){a._cancel();var b=w.indexOf(a);-1<b&&w.splice(b,1);b=I.indexOf(a);-1<b&&I.splice(b,1);a.i=!1}return this}var Q=Error("Not in timeline list"),ba="mpath posX posY    rotate skewX skewY  scaleX scaleY  anchorX anchorY".split(" "),ja=" translate translate    rotate skewX skewY  scale scale  translate translate".split(" "),
T="none url blur brightness contrast drop-shadow grayscale hue-rotate invert opacity saturate sepia".split(" "),M=window.requestAnimationFrame||window.webkitRequestAnimationFrame||window.mozRequestAnimationFrame||window.oRequestAnimationFrame||window.msRequestAnimationFrame||null;M||(M=function(a){window.setTimeout(a,16)});var S={d:97,fill:48,fillOpacity:16,filter:80,height:33,opacity:16,offsetDistance:33,stroke:48,strokeDasharray:64,strokeDashoffset:32,strokeOpacity:16,strokeWidth:32,transform:1,
width:33},ca=window.getComputedStyle(document.documentElement),E=!1,v=(new Date).getTime(),u,V=0,w=[],I=[];Z.prototype={B:function(a){var b=0;if(null!==this.c){var c=this.j();0<this.b&&null!==c&&c>=this.f?this.h?(this.c=v-this.g/this.b,this.h--,b=2):(b=1,a?this.a=c:this.a=this.s?Math.max(this.s,this.f):this.f):0>this.b&&null!==c&&c<=this.g?this.h&&Infinity!=this.f?(this.c=v-this.f/this.b,this.h--,b=2):(this.h=0,b=1,a?this.a=c:this.a=this.s?Math.min(this.s,this.g):this.g):null!==c&&0!=this.b&&(a&&
null!==this.a&&(this.c=v-this.a/this.b),this.a=null)}this.s=this.j();return b},J:function(a){a&&(this.o&&(this.o=!1,null===this.c&&(0!=this.b&&null!==this.a?(this.c=v-this.a/this.b,this.a=null):this.c=v)),null===this.a&&null!==this.c&&(a=this.B(!1),0!=a&&I.push([this,a])));a=this.j();if(null===a)return!1;for(var b=this.A,c=this.C,d=0;d<b.length;++d){for(var e=b[d],n=!1,l=0;l<c[d].length;++l){var f=c[d][l],h=f[0];if(null!==h){var g=f[2];var q=f[4].length,m=f[4][q-1]-g;g=0==m?f[5][q-1]:a<=g?f[5][0]:
a>=g+f[3]?0==f[3]%m?f[5][q-1]:U(f[3]%m,f):U((a-g)%m,f);0==h?(e._ks.mpath=f[8],e._ks.transform[h]=g,n=!0):14>=h?(e._ks.transform[h]=g,n=!0):(g=ea(f[1]&240,g),f[1]&1?e.setAttribute(h,g):e.style[h]=g)}}if(n){Y(e);n=e._ks.transform;l="";if(f=e._ks.mpath)g=n[0],0>g&&(g=0),100<g&&(g=100),g=g*f[2]/100,h=f[1].getPointAtLength(g),l="translate("+h.x+","+h.y+") ",f[0]&&(.5>g?(g=h,h=f[1].getPointAtLength(.5)):g=f[1].getPointAtLength(g-.5),l+="rotate("+180*Math.atan2(h.y-g.y,h.x-g.x)/Math.PI+") ");for(f=1;f<n.length;++f)h=
n[f],h!=(10==f||11==f?1:0)&&(l+=" "+ja[f]+"(",l=2>=f?l+(1==f?h+",0":"0,"+h):13<=f?l+(13==f?h+",0":"0,"+h):10<=f?l+(10==f?h+",1":"1,"+h):l+h,l+=")");e.setAttribute("transform",l)}}return"running"==this.m()},I:function(){!1!==this.l.autoremove&&"finished"==this.m()&&P(this)},D:function(){if(!this.F){this.F=!0;for(var a=this.A,b=this.C,c=0;c<a.length;++c)for(var d=a[c],e=0;e<b[c].length;++e)14>=b[c][e][0]&&Y(d)}},u:function(a){if("number"==typeof a)return a;if(!t(this.l.markers)||!t(this.l.markers[a]))throw Error("Invalid marker: "+
a);return+this.l.markers[a]},play:function(a){t(a)&&null!==a&&(a=this.u(a),H(a),0>this.b&&a<this.g&&(a=this.g),0<this.b&&a>this.f&&(a=this.f),this.w(a,!0));if(!this.i)throw Q;a=this.j();if(0<this.b&&(null===a||a>=this.f))this.a=this.g;else if(0>this.b&&(null===a||a<=this.g)){if(Infinity==this.f)throw Error("Cannot seek to Infinity");this.a=this.f}else 0==this.b&&null===a&&(this.a=this.g);if(null===this.a)return this;this.c=null;this.o=!0;this.D();N();return this},pause:function(a){if(!this.i)throw Q;
t(a)&&(a=this.u(a),H(a));if("paused"!=this.m()){L();var b=this.j();if(null===b)if(0<=this.b)this.a=this.g;else{if(Infinity==this.f)throw Error("Cannot seek to Infinity");this.a=this.f}null!==this.c&&null===this.a&&(this.a=b);this.c=null;this.o=!1;this.B(!1);this.D();N()}t(a)&&this.w(a,!0);return this},range:function(a,b){if(0==arguments.length)return{"in":this.g,out:this.f};var c=this.u(a),d=this.v;t(b)&&(d=this.u(b));H(c);if(0>c||0>d||c>=d||isNaN(d))throw Error("Invalid range");var e=this.m();this.g=
c;this.f=d;"finished"==e&&"running"==this.m()&&this.play();return this},loop:function(a){if(!t(a))return{count:this.h};this.h=!0===a?Infinity:Math.floor(a);if(0>this.h||isNaN(this.h))this.h=0;return this},j:function(){return null!==this.a?this.a:null===this.c?null:(v-this.c)*this.b},w:function(a,b){b&&L();null!==a&&(this.D(),null!==this.a||null===this.c||0==this.b?(this.a=a,O(!1)):this.c=v-a/this.b,this.i||(this.c=null),this.s=null,this.B(!0),N())},G:function(){return this.j()},time:function(a){if(t(a)){if(!this.i)throw Q;
a=this.u(a);H(a);this.w(a,!0);return this}return this.G()},m:function(){var a=this.j();return this.o?"running":null===a?"idle":null===this.c?"paused":0<this.b&&a>=this.f||0>this.b&&a<=this.g?"finished":"running"},state:function(){return this.m()},duration:function(){return this.v},H:function(a){H(a);L();var b=this.j();this.b=a;null!==b&&this.w(b,!1)},rate:function(a){return t(a)?(this.H(a),this):this.b},marker:function(a){return t(this.l.markers)?this.l.markers[a]:void 0},_cancel:function(){if(!this.i||
"idle"==this.m())return this;this.c=this.a=null;this.o=!1;return this}};return{version:"1.1.0",animate:function(){var a={};if(1==arguments.length%2){a=arguments[arguments.length-1];var b={};for(c in a)b[c]=a[c];a=b}var c=new Z(a);a=arguments;for(var d=b=0;d<a.length-1;d+=2){var e=a[d];var n=e instanceof Element?e:document.getElementById(e.substring(1));if(!n)throw Error("Invalid target: "+e);e=n;n=a[d+1];e._ks||(e._ks={});for(var l=[],f=0;f<n.length;++f){var h=n[f],g=J(h,"p","property");if("string"!=
typeof g||-1!=g.indexOf("-")||""===g||!(0<S[g]||0<=ba.indexOf(g)))throw Error("Invalid property: "+g);var q=ba.indexOf(g);""!==g&&0<=q&&(g=q);q=R(g);var m=J(h,"t","times");if(!m||2>m.length)throw Error("Not enough times");m=m.slice();if(!isFinite(m[0])||0>m[0])throw Error("Invalid time: "+m[0]);for(var B=1;B<m.length;++B)if(!isFinite(m[B])||0>m[B]||m[B]<m[B-1])throw Error("Invalid time: "+m[B]);B=m[0];var v=m[m.length-1]-B,y=h.iterations||0;1>y&&(y=1);v*=y;b<v+B&&(b=v+B);var u=J(h,"v","values");if(!u||
u.length!=m.length)throw Error("Values do not match times");u=u.slice();for(var C=g,k=u,w=R(C)&240,p=0;p<k.length;++p)if(96==w){for(var G=k[p].substring(6,k[p].length-2).match(/[A-DF-Za-df-z][-+0-9eE., ]*/ig),A=[],r=0;r<G.length;++r){A.push(G[r][0]);for(var z=1<G[r].trim().length?G[r].substring(1).split(","):[],F=0;F<z.length;++F)z[F]=parseFloat(z[F]);A.push(z)}k[p]=A}else if(48==w)x(k[p],"#")?(G=9==k[p].length,k[p]=parseInt(k[p].substring(1),16),G||(k[p]=256*k[p]|255)):x(k[p],"url(")||"none"==k[p]||
(console.warn("unsupported color: "+k[p]),k[p]=0);else if(80==w){G=k;A=p;r=k[p];if("none"==r)r=[0];else{z=[];for(var D=r.indexOf("(");0<D;)if(F=T.indexOf(r.substring(0,D)),0<=F){z.push(F);var E=r.indexOf(") ");0>E&&(E=r.length-1);D=r.substring(D+1,E).split(" ");5==F?(z.push(parseFloat(D[0])),z.push(parseFloat(D[1])),z.push(parseFloat(D[2])),z.push(ia(D[3]))):1==F?z.push(D[0]):z.push(parseFloat(D[0]));r=r.substring(E+1).trim();D=r.indexOf("(")}else break;r=z}G[A]=r}else 64==w?"none"!=k[p]?/^[0-9 .]*$/.test(k[p])?
k[p]=X(k[p]," "):(console.warn("unsupported value: "+k[p]),k[p]=[0]):k[p]=[0]:32==w?(H(k[p]),k[p]=parseFloat(k[p])):0===C&&(k[p]=parseFloat(k[p]));C=J(h,"e","easing");k=m.length;for(C||(C=[]);C.length<k;)C.push([1,0,0,.58,1]);for(k=0;k<C.length;++k)C[k]=ha(C[k]);q=[g,q,B,v,m,u,C,y];m=J(h,"mp","motionPath");t(m)&&0===g&&(q[8]=[],q[8][0]=h.motionRotate,h=document.createElementNS("http://www.w3.org/2000/svg","path"),m||(m="M0,0"),h.setAttribute("d",m),q[8][1]=h,q[8][2]=h.getTotalLength());l.push(q)}0<
l.length&&(c.A.push(e),c.C.push(l))}c.v=b;c.g=0;c.f=c.v;aa(c);return c},add:aa,remove:P,removeAll:function(){for(var a=w.length-1;0<=a;--a)P(w[a]);return this},timelines:function(){return w.slice()},globalPlay:function(){u&&(V=u-(new Date).getTime(),u=void 0,N());return this},globalPause:function(){u||(u=v,O(!1));return this},globalState:function(){return u?"paused":"running"}}}();
]]></script>
    <script><![CDATA[if(KeyshapeJS.version.indexOf('1.')!=0)throw Error('Expected KeyshapeJS v1.*.*');window.ks=document.ks=KeyshapeJS;(function(ks){
ks.animate("#_a0",[{p:'mpath',t:[300,1500],v:['0%','0%'],e:[[0],[0]],mp:"M31.5775,30.9744L31.5775,30.9744"}],
"#dNA",[{p:'mpath',t:[1700,1800],v:['0%','100%'],e:[[1,0,0,1,1],[0]],mp:"M4.0168,17.2244L17.95,19.1926"},{p:'scaleX',t:[1700,1800],v:[0.2,0.1],e:[[0],[0]]},{p:'scaleY',t:[1700,1800],v:[0.2,0.1],e:[[0],[0]]},{p:'opacity',t:[1100,1700,2500,2800,3000],v:[0,1,1,1,0],e:[[1,0.42,0,1,1],[0],[0],[0],[0]]}],
"#dNA-2",[{p:'opacity',t:[100,1000,1700,1900,2800,3000],v:[0,0,0,1,1,0],e:[[0],[0],[0],[0],[0],[0]]}],
"#dNA-3",[{p:'opacity',t:[2400,2500,2800,3000],v:[0,1,1,0],e:[[0],[0],[0],[0]]}],
"#dNA-4",[{p:'opacity',t:[2400,2500,2800,3000],v:[0,1,1,0],e:[[0],[0],[0],[0]]}],
"#RNA",[{p:'opacity',t:[600,1100,1600,1700],v:[0,1,1,0],e:[[0],[0],[0],[0]]}],
"#1",[{p:'mpath',t:[600,1100],v:['0%','100%'],e:[[0],[0]],mp:"M12.8775,10.0194L-137.9,-102.684"},{p:'scaleX',t:[600,1100],v:[0.2,1.8],e:[[0],[0]]},{p:'scaleY',t:[600,1100],v:[0.2,1.8],e:[[0],[0]]},{p:'opacity',t:[600,1100],v:[1,0],e:[[0],[0]]}],
"#_a1",[{p:'opacity',t:[3000,3100,3500,3600,3900],v:[0,1,1,0,0],e:[[0],[0],[0],[0],[0]]}],
{autoremove:false}).range(0,3900).loop(true);
if(document.location.search.substr(1).split('&').indexOf('global=paused')>=0)ks.globalPause()})(KeyshapeJS);
]]></script>
</svg>
