<?xml version="1.0" encoding="UTF-8" standalone="no"?>
<!-- Created with Keyshape -->
<svg xmlns="http://www.w3.org/2000/svg" viewBox="0 0 64 64" width="512" height="512">
    <ellipse id="_a0" rx="28" ry="28" stroke="none" fill="#eef7f9" transform="translate(31.5775,30.9744) translate(0,0) translate(0,0)"/>
    <g id="outline" opacity="1" transform="translate(0,0) translate(0,0) translate(0,0)">
        <path d="M22.4994,42.2214C39.2723,42.2214,42.9811,23.2135,42.9811,23.2135C42.9844,23.1953,42.987,23.1771,42.9888,23.1588C42.9907,23.1404,42.9918,23.122,42.9921,23.1036C42.9924,23.0852,42.992,23.0668,42.9909,23.0484C42.9898,23.03,42.9879,23.0117,42.9852,22.9935C42.8606,22.2735,42.7125,21.5579,42.5411,20.8476C42.3697,20.1374,42.1752,19.4329,41.9579,18.7353C41.7405,18.0378,41.5005,17.3475,41.2381,16.6656C40.9757,15.9837,40.6911,15.3106,40.3847,14.6473C37.6926,8.88734,33.6887,5.19768,28.8142,3.97872C26.9612,3.51546,25.6923,4.60528,24.6743,5.48192C23.9206,6.13102,23.2708,6.69131,22.4994,6.69131C21.6112,6.69131,20.947,6.14469,20.1763,5.51061C19.1029,4.62578,17.7657,3.5223,15.5301,3.97189C10.7533,4.92847,6.89627,8.54365,4.37568,14.4307C4.0877,15.1167,3.82181,15.8117,3.57841,16.5147C3.33502,17.2177,3.11426,17.9284,2.91646,18.6456C2.71866,19.3628,2.54394,20.0861,2.39255,20.8145C2.24116,21.5429,2.11319,22.276,2.00883,23.0126C2.00687,23.0293,2.00553,23.046,2.0048,23.0628C2.00407,23.0796,2.00397,23.0964,2.00448,23.1133C2.005,23.1301,2.00613,23.1468,2.00788,23.1636C2.00964,23.1803,2.012,23.1969,2.01498,23.2135C2.01498,23.2135,5.72651,42.2214,22.4994,42.2214ZM37.9557,31.9853C34.2366,37.8703,29.0356,40.8548,22.4994,40.8548C15.9633,40.8548,10.7622,37.8703,7.04317,31.9853C6.78864,31.578,6.54452,31.1643,6.31103,30.7445C6.07754,30.3248,5.85476,29.8992,5.64291,29.4681C5.43106,29.0371,5.23021,28.6007,5.04055,28.1594C4.85089,27.7182,4.67249,27.2722,4.5055,26.8218C4.73827,27.1087,4.97564,27.3919,5.2175,27.6712C5.45937,27.9505,5.7057,28.2259,5.95641,28.4973C6.20712,28.7687,6.46217,29.0361,6.72147,29.2993C6.98077,29.5625,7.24428,29.8215,7.51189,30.0762C12.1089,34.4457,17.2922,36.7552,22.4994,36.7552C31.054,36.7552,37.2792,30.8183,40.477,26.8655C40.3107,27.312,40.1331,27.7542,39.9445,28.1916C39.7559,28.6291,39.5562,29.0618,39.3458,29.4892C39.1353,29.9166,38.914,30.3386,38.6823,30.7548C38.4505,31.171,38.2082,31.5813,37.9557,31.9853ZM23.1827,32.6556L23.1827,26.2281C29.369,22.8582,36.3097,25.3999,38.8924,26.5854C35.7098,30.3051,29.9908,35.3887,22.4994,35.3887C16.3719,35.3887,11.4769,31.9607,8.45002,29.0855C8.24131,28.8864,8.03527,28.6845,7.83195,28.4798C7.62863,28.2752,7.42804,28.0679,7.23026,27.8579C7.03247,27.6479,6.83749,27.4353,6.64537,27.2201C6.45325,27.0049,6.26402,26.7872,6.07771,26.567C8.52245,25.3842,15.1474,22.865,21.8162,26.2424L21.8162,32.6556ZM15.8034,5.3111C17.4043,4.99065,18.2877,5.72106,19.3113,6.5649C20.1572,7.26457,21.1185,8.05785,22.4994,8.05785C23.7778,8.05785,24.7283,7.23792,25.5659,6.51775C26.5034,5.70945,27.3103,5.01456,28.4835,5.30427C33.002,6.4344,36.585,9.76192,39.1323,15.1946C39.3054,15.5678,39.4714,15.9442,39.63,16.3238C39.7886,16.7034,39.9398,17.086,40.0836,17.4714C40.2274,17.8568,40.3638,18.245,40.4926,18.6357C40.6214,19.0263,40.7426,19.4195,40.8562,19.8149C40.3779,19.2102,39.8272,18.5454,39.1938,17.8491C38.6376,17.2342,38.0636,16.6452,37.489,16.1027C37.2037,15.8306,36.9129,15.5643,36.6168,15.304C36.3207,15.0438,36.0193,14.7895,35.7128,14.5415C35.4064,14.2935,35.0949,14.0517,34.7786,13.8164C34.4624,13.581,34.1413,13.3521,33.8158,13.1298C33.3821,12.8312,32.9379,12.5481,32.4841,12.2812C32.0302,12.0142,31.5671,11.7635,31.0954,11.5295C30.6237,11.2956,30.1438,11.0784,29.6567,10.8786C29.1696,10.6788,28.6755,10.4964,28.1754,10.3318C27.2605,10.033,26.3234,9.80688,25.3729,9.6556C24.4225,9.50433,23.4615,9.42833,22.4991,9.42833C21.5366,9.42833,20.5757,9.50433,19.6252,9.6556C18.6748,9.80688,17.7377,10.033,16.8228,10.3318C16.3229,10.4964,15.829,10.6788,15.3421,10.8785C14.8552,11.0783,14.3755,11.2953,13.904,11.5292C13.4325,11.763,12.9694,12.0136,12.5158,12.2804C12.0621,12.5472,11.618,12.83,11.1845,13.1284C10.6917,13.4666,10.2091,13.8193,9.73732,14.1861C9.26552,14.5529,8.80471,14.9337,8.35551,15.3278C7.90631,15.722,7.46891,16.1295,7.0439,16.5496C6.61889,16.9697,6.20646,17.4024,5.80713,17.8471C5.09722,18.6274,4.48706,19.3687,3.97597,20.0294C5.13548,15.3217,8.24846,6.82181,15.8034,5.3111ZM37.0866,17.6236L35.4816,17.6236C35.3021,17.6236,35.1244,17.5883,34.9586,17.5196C34.7928,17.4509,34.6422,17.3503,34.5153,17.2234C34.3884,17.0965,34.2877,16.9458,34.219,16.78C34.1504,16.6142,34.115,16.4365,34.115,16.2571L34.115,15.0272C34.3272,15.188,34.5372,15.3517,34.7448,15.5183C34.9525,15.6849,35.1579,15.8544,35.3608,16.0266C35.5638,16.1989,35.7644,16.374,35.9625,16.5518C36.1607,16.7296,36.3564,16.9102,36.5495,17.0934C36.7292,17.2649,36.9075,17.4453,37.0866,17.6236ZM32.7485,14.0706L32.7485,16.2571C32.7485,16.4365,32.7131,16.6142,32.6445,16.78C32.5758,16.9458,32.4751,17.0965,32.3482,17.2234C32.2213,17.3503,32.0707,17.4509,31.9049,17.5196C31.7391,17.5883,31.5614,17.6236,31.3819,17.6236L30.0154,17.6236C29.8359,17.6236,29.6582,17.5883,29.4924,17.5196C29.3267,17.4509,29.176,17.3503,29.0491,17.2234C28.9222,17.0965,28.8216,16.9458,28.7529,16.78C28.6842,16.6142,28.6489,16.4365,28.6489,16.2571L28.6489,11.9593C29.0085,12.097,29.3642,12.2446,29.7157,12.4018C30.0673,12.5591,30.4144,12.7259,30.7567,12.9022C31.0991,13.0786,31.4365,13.2642,31.7687,13.4591C32.1008,13.6539,32.4275,13.8578,32.7485,14.0706ZM27.2823,11.4995L27.2823,16.2571C27.2823,16.4365,27.247,16.6142,27.1783,16.78C27.1096,16.9458,27.009,17.0965,26.8821,17.2234C26.7552,17.3503,26.6045,17.4509,26.4387,17.5196C26.2729,17.5883,26.0952,17.6236,25.9158,17.6236L24.5492,17.6236C24.3698,17.6236,24.1921,17.5883,24.0263,17.5196C23.8605,17.4509,23.7098,17.3503,23.5829,17.2234C23.4561,17.0965,23.3554,16.9458,23.2867,16.78C23.218,16.6142,23.1827,16.4365,23.1827,16.2571L23.1827,10.8224C23.5295,10.8368,23.8759,10.8619,24.2212,10.8974C24.5665,10.933,24.9107,10.9791,25.2532,11.0357C25.5957,11.0923,25.9364,11.1593,26.2748,11.2366C26.6133,11.314,26.9492,11.4016,27.2823,11.4995ZM21.8162,10.8224L21.8162,16.2571C21.8162,16.4365,21.7808,16.6142,21.7121,16.78C21.6435,16.9458,21.5428,17.0965,21.4159,17.2234C21.289,17.3503,21.1384,17.4509,20.9726,17.5196C20.8068,17.5883,20.6291,17.6236,20.4496,17.6236L19.0831,17.6236C18.9036,17.6236,18.7259,17.5883,18.5601,17.5196C18.3943,17.4509,18.2437,17.3503,18.1168,17.2234C17.9899,17.0965,17.8892,16.9458,17.8206,16.78C17.7519,16.6142,17.7165,16.4365,17.7165,16.2571L17.7165,11.4995C18.0496,11.4016,18.3856,11.3139,18.724,11.2365C19.0624,11.1591,19.4031,11.0921,19.7456,11.0355C20.0882,10.979,20.4323,10.9329,20.7776,10.8973C21.123,10.8618,21.4693,10.8368,21.8162,10.8224ZM16.35,11.9593L16.35,16.2571C16.35,16.4365,16.3146,16.6142,16.246,16.78C16.1773,16.9458,16.0766,17.0965,15.9497,17.2234C15.8228,17.3503,15.6722,17.4509,15.5064,17.5196C15.3406,17.5883,15.1629,17.6236,14.9835,17.6236L13.6169,17.6236C13.4375,17.6236,13.2598,17.5883,13.094,17.5196C12.9282,17.4509,12.7775,17.3503,12.6506,17.2234C12.5237,17.0965,12.4231,16.9458,12.3544,16.78C12.2857,16.6142,12.2504,16.4365,12.2504,16.2571L12.2504,14.0706C12.5713,13.8579,12.8981,13.654,13.2302,13.4591C13.5624,13.2643,13.8998,13.0787,14.2422,12.9023C14.5845,12.726,14.9316,12.5592,15.2831,12.4019C15.6346,12.2446,15.9904,12.0971,16.35,11.9593ZM10.8838,15.034L10.8838,16.2571C10.8838,16.4365,10.8485,16.6142,10.7798,16.78C10.7111,16.9458,10.6105,17.0965,10.4836,17.2234C10.3567,17.3503,10.206,17.4509,10.0402,17.5196C9.87445,17.5883,9.69675,17.6236,9.51729,17.6236L7.91571,17.6236C8.14786,17.3911,8.38398,17.1626,8.62396,16.9382C8.86395,16.7138,9.10777,16.4936,9.35532,16.2776C9.60286,16.0615,9.85409,15.8498,10.1089,15.6423C10.3637,15.4349,10.6221,15.2319,10.8838,15.0334ZM6.62023,18.9902L9.51729,18.9902C9.71143,18.9896,9.90495,18.9681,10.0945,18.9263C10.2841,18.8844,10.4686,18.8223,10.6449,18.7411C10.8213,18.6599,10.9884,18.5599,11.1434,18.4431C11.2984,18.3262,11.4405,18.1931,11.5671,18.0459C11.6937,18.1931,11.8358,18.3262,11.9908,18.4431C12.1458,18.5599,12.3129,18.6599,12.4893,18.7411C12.6656,18.8223,12.8501,18.8844,13.0397,18.9263C13.2293,18.9681,13.4228,18.9896,13.6169,18.9902L14.9835,18.9902C15.1776,18.9896,15.3711,18.9681,15.5607,18.9263C15.7502,18.8844,15.9348,18.8223,16.1111,18.7411C16.2874,18.6599,16.4546,18.5599,16.6096,18.4431C16.7646,18.3262,16.9066,18.1931,17.0333,18.0459C17.1599,18.1931,17.3019,18.3262,17.457,18.4431C17.612,18.5599,17.7791,18.6599,17.9554,18.7411C18.1317,18.8223,18.3163,18.8844,18.5059,18.9263C18.6954,18.9681,18.8889,18.9896,19.0831,18.9902L20.4496,18.9902C20.6438,18.9896,20.8373,18.9681,21.0268,18.9263C21.2164,18.8844,21.4009,18.8223,21.5773,18.7411C21.7536,18.6599,21.9207,18.5599,22.0757,18.4431C22.2308,18.3262,22.3728,18.1931,22.4994,18.0459C22.6261,18.1931,22.7681,18.3262,22.9231,18.4431C23.0781,18.5599,23.2453,18.6599,23.4216,18.7411C23.5979,18.8223,23.7824,18.8844,23.972,18.9263C24.1616,18.9681,24.3551,18.9896,24.5492,18.9902L25.9158,18.9902C26.1099,18.9896,26.3034,18.9681,26.493,18.9263C26.6826,18.8844,26.8671,18.8223,27.0434,18.7411C27.2198,18.6599,27.3869,18.5599,27.5419,18.4431C27.6969,18.3262,27.839,18.1931,27.9656,18.0459C28.0922,18.1931,28.2343,18.3262,28.3893,18.4431C28.5443,18.5599,28.7114,18.6599,28.8877,18.7411C29.0641,18.8223,29.2486,18.8844,29.4382,18.9263C29.6277,18.9681,29.8213,18.9896,30.0154,18.9902L31.3819,18.9902C31.5761,18.9896,31.7696,18.9681,31.9592,18.9263C32.1487,18.8844,32.3333,18.8223,32.5096,18.7411C32.6859,18.6599,32.853,18.5599,33.0081,18.4431C33.1631,18.3262,33.3051,18.1931,33.4318,18.0459C33.5584,18.1931,33.7004,18.3262,33.8554,18.4431C34.0105,18.5599,34.1776,18.6599,34.3539,18.7411C34.5302,18.8223,34.7148,18.8844,34.9043,18.9263C35.0939,18.9681,35.2874,18.9896,35.4816,18.9902L38.3793,18.9902C38.6668,19.3105,38.948,19.6364,39.2226,19.9678C39.4972,20.2992,39.7652,20.636,40.0265,20.978C40.2878,21.32,40.5423,21.6671,40.7898,22.0192C41.0374,22.3713,41.278,22.7282,41.5114,23.0898C41.2224,23.5442,40.6375,24.4181,39.7882,25.4963C37.3168,24.3149,29.5023,21.1917,22.4871,25.0453C14.9794,21.2101,7.55357,24.2896,5.18809,25.4833C4.3504,24.4119,3.77372,23.5435,3.48675,23.0918C3.72022,22.73,3.96085,22.3729,4.20849,22.0206C4.45612,21.6684,4.71072,21.321,4.97213,20.9788C5.23353,20.6367,5.50169,20.2997,5.77646,19.9682C6.05122,19.6366,6.33253,19.3106,6.62023,18.9902Z" fill="#444444" transform="translate(9.50182,8.95525)"/>
    </g>
    <g id="_a1" opacity="1" transform="translate(27.2183,37.435) translate(0,0) rotate(-13) translate(-2.5,-20.8565)">
        <rect id="_a2" width="2" height="31.0242" fill="#dbf3fb" stroke="#444444" transform="translate(3.5,23.7009) translate(-2,-13.0121)"/>
        <ellipse id="_a3" rx="2.5" ry="5.8437" stroke="#444444" fill="#ffffff" opacity="0" transform="translate(2.5,5.8437)"/>
    </g>
    <g id="_a4" opacity="0" transform="translate(18.7775,18.1744) scale(0.05,0.05)">
        <path d="M474.5,26L37.5,26C16.822,26,0,42.822,0,63.5L0,378.5C0,399.178,16.822,416,37.5,416L190.057,416L181.03,447.594C177.405,460.281,163.195,471,150,471L101,471C96.858,471,93.5,474.358,93.5,478.5C93.5,482.642,96.858,486,101,486L411,486C415.142,486,418.5,482.642,418.5,478.5C418.5,474.358,415.142,471,411,471L362,471C348.805,471,334.595,460.281,330.97,447.594L321.943,416L474.5,416C495.178,416,512,399.178,512,378.5L512,63.5C512,42.822,495.178,26,474.5,26ZM316.547,451.715C318.605,458.919,322.696,465.539,328.059,471L183.941,471C189.304,465.539,193.395,458.919,195.453,451.715L205.657,416L306.342,416ZM497,378.5C497,390.907,486.907,401,474.5,401L37.5,401C25.093,401,15,390.907,15,378.5L15,63.5C15,51.093,25.093,41,37.5,41L474.5,41C486.907,41,497,51.093,497,63.5Z"/>
        <path d="M482,348.5L482,63.5C482,59.358,478.642,56,474.5,56L37.5,56C33.358,56,30,59.358,30,63.5L30,191C30,195.142,33.358,198.5,37.5,198.5C41.642,198.5,45,195.142,45,191L45,71L467,71L467,341L45,341L45,221C45,216.858,41.642,213.5,37.5,213.5C33.358,213.5,30,216.858,30,221L30,348.5C30,352.642,33.358,356,37.5,356L474.5,356C478.642,356,482,352.642,482,348.5Z"/>
        <ellipse rx="7.5" ry="7.5" transform="translate(0,0) translate(475.18,378.473)"/>
        <ellipse rx="7.5" ry="7.5" transform="translate(0,0) translate(445.18,378.473)"/>
    </g>
    <g id="Artboard" stroke="none" stroke-width="1" fill="none" fill-rule="evenodd" opacity="1" transform="translate(21.9885,-25) translate(0,0) scale(0.2,0.2) translate(0,0)">
        <path id="Combined-Shape" d="M77,12L77,75L98,75L54,110L10,75L30,74.999L30,12L77,12Z" stroke="#444444" stroke-width="3" opacity="1" transform="translate(-4.9565,0)"/>
        <path id="Shape" d="M59.7869,47.162C62.2137,45.265,63.7069,42.4263,63.8889,39.3636C63.8889,29.1451,57.9669,27,53,27C48.0331,27,42.1111,29.1451,42.1111,39.3636C42.2918,42.4279,43.7851,45.2684,46.2131,47.1666C42.0897,47.6714,38.994,51.1541,39,55.2818L39,61L42.1111,61L42.1111,55.2818C42.1111,52.4652,44.4095,50.1818,47.2444,50.1818L58.7555,50.1818C61.5905,50.1818,63.8889,52.4652,63.8889,55.2818L63.8889,61L67,61L67,55.2818C67.0083,51.1524,63.912,47.667,59.7869,47.162ZM45.3031,37.727C45.7247,32.5482,48.1778,30.0909,53,30.0909C57.4147,30.0909,59.8444,32.1649,60.5398,36.4922L55.3567,33.4013C54.6199,32.9622,53.6644,33.1996,53.2224,33.9316C53.1641,34.0281,53.1167,34.1305,53.0809,34.2374C52.2938,36.5834,48.044,37.4705,45.3031,37.727ZM53,47.0909C49.5305,46.5038,46.6444,44.1136,45.4385,40.8287L45.4385,40.8241C48.1016,40.6062,52.9051,39.8056,55.1451,36.877L60.7046,40.1905C60.0809,43.9799,55.3878,47.0909,53,47.0909Z" fill="#444444" fill-rule="nonzero" opacity="1" transform="translate(-5.05501,5.05801)"/>
    </g>
    <path id="_a5" d="M-0.920555,-0.169255L0.616271,1.83579L6.02969,-2.52555" stroke="#3ab117" fill="none" stroke-width="2" stroke-linecap="square" opacity="0" transform="translate(29.4707,28.9522)"/>
    <script><![CDATA[/*
 KeyshapeJS v1.1.0 (c) 2018-2019 Pixofield Ltd | pixofield.com/keyshapejs/mit-license */
window.KeyshapeJS=function(){function t(a){return"undefined"!==typeof a}function x(a,b){return a&&0==a.indexOf(b)}function H(a){if(!isFinite(a))throw Error("Non-finite value");}function R(a){if(14>=a)return 16;var b=S[a];b||(b=t(ca[a])?0|(a.toLowerCase().indexOf("color")==a.length-5?48:0):1);return b}function K(a){return 0<=a?Math.pow(a,1/3):-Math.pow(-a,1/3)}function da(a,b,c,d){if(0==a)return 0==b?b=-d/c:(a=Math.sqrt(c*c-4*b*d),d=(-c+a)/(2*b),0<=d&&1>=d?b=d:(d=(-c-a)/(2*b),b=0<=d&&1>=d?d:0)),b;
var e=c/a-b*b/(a*a)/3;c=b*b*b/(a*a*a)/13.5-b*c/(a*a)/3+d/a;var n=c*c/4+e*e*e/27;b=-b/(3*a);if(0>=n){if(0==e&&0==c)return-K(d/a);a=Math.sqrt(c*c/4-n);d=Math.acos(-c/2/a);c=Math.cos(d/3);d=Math.sqrt(3)*Math.sin(d/3);a=K(a);e=2*a*c+b;if(0<=e&&1>=e)return e;e=-a*(c+d)+b;if(0<=e&&1>=e)return e;e=a*(d-c)+b;if(0<=e&&1>=e)return e}else{a=K(-c/2+Math.sqrt(n));c=K(-c/2-Math.sqrt(n));d=a+c+b;if(0<=d&&1>=d)return d;d=-(a+c)/2+b;if(0<=d&&1>=d)return d}return 0}function ea(a,b){if(48==a&&"number"===typeof b)return"rgba("+
(b>>>24)+","+(b>>>16&255)+","+(b>>>8&255)+","+(b&255)/255+")";if(64==a)return b=b.map(function(a){return a+"px"}),b.join(",");if(96==a){a="";for(var c=b.length,d=0;d<c;d+=2)a+=b[d],a+=b[d+1].join(",");return a}if(80==a){if(0==b[0])return"none";a="";c=b.length;for(d=0;d<c;)a+=T[b[d]],1==b[d]?a+="("+b[d+1]+") ":5==b[d]?(a+="("+b[d+1]+"px "+b[d+2]+"px "+b[d+3]+"px rgba("+(b[d+4]>>>24)+","+(b[d+4]>>16&255)+","+(b[d+4]>>8&255)+","+(b[d+4]&255)/255+")) ",d+=3):a=2==b[d]?a+("("+b[d+1]+"px) "):7==b[d]?a+
("("+b[d+1]+"deg) "):a+("("+(0>b[d+1]?0:b[d+1])+") "),d+=2;return a}return 32==a?b+"px":b}function y(a){return 0>=a?0:255<=a?255:a}function fa(a,b,c,d){if(16==a||32==a)return(c-b)*d+b;if(0==a)return.5>d?b:c;if(48==a){if("number"===typeof b&&"number"===typeof c){var e=1-d;return(y(e*(b>>>24)+d*(c>>>24))<<24|y(e*(b>>>16&255)+d*(c>>>16&255))<<16|y(e*(b>>>8&255)+d*(c>>>8&255))<<8|y(e*(b&255)+d*(c&255)))>>>0}return.5>d?b:c}if(64==a){0==b.length&&(b=[0]);0==c.length&&(c=[0]);var n=b.length;b.length!=c.length&&
(n=b.length*c.length);var l=[];for(a=0;a<n;++a){var f=b[a%b.length];var h=(c[a%c.length]-f)*d+f;0>h&&(h=0);l.push(h)}return l}if(96==a){if(b.length!=c.length)return.5>d?b:c;n=b.length;l=[];for(a=0;a<n;a+=2){if(b[a]!==c[a])return.5>d?b:c;l[a]=b[a];l[a+1]=[];for(f=0;f<b[a+1].length;++f)l[a+1].push((c[a+1][f]-b[a+1][f])*d+b[a+1][f])}return l}if(80==a){n=b.length;if(n!=c.length)return.5>d?b:c;l=[];for(a=0;a<n;){if(b[a]!=c[a]||1==b[a])return.5>d?b:c;l[a]=b[a];l[a+1]=(c[a+1]-b[a+1])*d+b[a+1];if(5==b[a]){l[a+
2]=(c[a+2]-b[a+2])*d+b[a+2];l[a+3]=(c[a+3]-b[a+3])*d+b[a+3];e=1-d;var g=b[a+4],q=c[a+4];h=e*(g>>>24)+d*(q>>>24);var m=e*(g>>16&255)+d*(q>>16&255);f=e*(g>>8&255)+d*(q>>8&255);e=e*(g&255)+d*(q&255);l[a+4]=(y(m)<<16|y(f)<<8|y(e))+16777216*(y(h)|0);a+=3}a+=2}return l}return 0}function U(a,b){a:{var c=a+b[2];var d=b[4].length;for(var e=0;e<d;++e)if(c<b[4][e]){c=e;break a}c=d-1}d=b[2];e=b[4][c-1]-d;a=(a-e)/(b[4][c]-d-e);if(b[6]&&b[6].length>c-1)if(d=b[6][c-1],1==d[0])if(0>=a)a=0;else if(1<=a)a=1;else{e=
d[1];var n=d[3];a=da(3*e-3*n+1,-6*e+3*n,3*e,-a);a=3*a*(1-a)*(1-a)*d[2]+3*a*a*(1-a)*d[4]+a*a*a}else 2==d[0]?(d=d[1],a=Math.ceil(a*d)/d):3==d[0]&&(d=d[1],a=Math.floor(a*d)/d);return fa(b[1]&240,b[5][c-1],b[5][c],a)}function L(){u||(v=(new Date).getTime()+V)}function O(a){if(a||!E){for(var b=!1,c=0;c<w.length;++c)w[c].J(a)&&(b=!0);if(a)for(;0<I.length;)if(a=I.shift(),c=a[0],1==a[1])c.onfinish&&(c.onfinish(),b=!0),c.I();else if(2==a[1]&&c.onloop)c.onloop();return b}}function W(){L();O(!0)&&!u?(E=!0,M(W)):
E=!1}function N(){E||(E=!0,M(W))}function X(a,b){var c=[];a.split(b).forEach(function(a){c.push(parseFloat(a))});return c}function A(a){-1==a.indexOf(",")&&(a=a.replace(" ",","));return X(a,",")}function Y(a){a._ks||(a._ks={});if(!a._ks.transform){for(var b=a._ks.transform=[],c=0;14>=c;++c)b[c]=0;b[10]=1;b[11]=1;if(a=a.getAttribute("transform")){a=a.trim().split(") ");for(c=a.length-2;0<=c;--c)if(x(a[c],"translate(")){for(var d=0;d<c;d++)a.shift();break}c=a.shift();x(c,"translate(")&&(c=A(c.substring(10)),
b[1]=c[0],b[2]=t(c[1])?c[1]:0,c=a.shift());x(c,"rotate(")&&(c=A(c.substring(7)),b[6]=c[0],c=a.shift());x(c,"skewX(")&&(c=A(c.substring(6)),b[7]=c[0],c=a.shift());x(c,"skewY(")&&(c=A(c.substring(6)),b[8]=c[0],c=a.shift());x(c,"scale(")&&(c=A(c.substring(6)),b[10]=c[0],b[11]=t(c[1])?c[1]:c[0],c=a.shift());x(c,"translate(")&&(c=A(c.substring(10)),b[13]=c[0],b[14]=t(c[1])?c[1]:0)}}}function Z(a){this.l=a;this.A=[];this.C=[];this.v=0;this.s=this.a=this.c=null;this.h=this.f=this.g=0;this.b=1;this.i=this.F=
this.o=!1}function J(a,b,c){b=a[b];void 0===b&&(b=a[c]);return b}function ha(a){return Array.isArray(a)?a:x(a,"cubic-bezier(")?(a=a.substring(13,a.length-1).split(","),[1,parseFloat(a[0]),parseFloat(a[1]),parseFloat(a[2]),parseFloat(a[3])]):x(a,"steps(")?(a=a.substring(6,a.length-1).split(","),[a[1]&&"start"==a[1].trim()?2:3,parseFloat(a[0])]):[0]}function ia(a){a=a.trim();return x(a,"#")?(parseInt(a.substring(1),16)<<8)+255:x(a,"rgba(")?(a=a.substring(5,a.length-1),a=a.split(","),(parseInt(a[0],
10)<<24)+(parseInt(a[1],10)<<16)+(parseInt(a[2],10)<<8)+255*parseFloat(a[3])<<0):a}function aa(a){!1===a.i&&(w.push(a),a.i=!0,!1!==a.l.autoplay&&a.play());return this}function P(a){if(!0===a.i){a._cancel();var b=w.indexOf(a);-1<b&&w.splice(b,1);b=I.indexOf(a);-1<b&&I.splice(b,1);a.i=!1}return this}var Q=Error("Not in timeline list"),ba="mpath posX posY    rotate skewX skewY  scaleX scaleY  anchorX anchorY".split(" "),ja=" translate translate    rotate skewX skewY  scale scale  translate translate".split(" "),
T="none url blur brightness contrast drop-shadow grayscale hue-rotate invert opacity saturate sepia".split(" "),M=window.requestAnimationFrame||window.webkitRequestAnimationFrame||window.mozRequestAnimationFrame||window.oRequestAnimationFrame||window.msRequestAnimationFrame||null;M||(M=function(a){window.setTimeout(a,16)});var S={d:97,fill:48,fillOpacity:16,filter:80,height:33,opacity:16,offsetDistance:33,stroke:48,strokeDasharray:64,strokeDashoffset:32,strokeOpacity:16,strokeWidth:32,transform:1,
width:33},ca=window.getComputedStyle(document.documentElement),E=!1,v=(new Date).getTime(),u,V=0,w=[],I=[];Z.prototype={B:function(a){var b=0;if(null!==this.c){var c=this.j();0<this.b&&null!==c&&c>=this.f?this.h?(this.c=v-this.g/this.b,this.h--,b=2):(b=1,a?this.a=c:this.a=this.s?Math.max(this.s,this.f):this.f):0>this.b&&null!==c&&c<=this.g?this.h&&Infinity!=this.f?(this.c=v-this.f/this.b,this.h--,b=2):(this.h=0,b=1,a?this.a=c:this.a=this.s?Math.min(this.s,this.g):this.g):null!==c&&0!=this.b&&(a&&
null!==this.a&&(this.c=v-this.a/this.b),this.a=null)}this.s=this.j();return b},J:function(a){a&&(this.o&&(this.o=!1,null===this.c&&(0!=this.b&&null!==this.a?(this.c=v-this.a/this.b,this.a=null):this.c=v)),null===this.a&&null!==this.c&&(a=this.B(!1),0!=a&&I.push([this,a])));a=this.j();if(null===a)return!1;for(var b=this.A,c=this.C,d=0;d<b.length;++d){for(var e=b[d],n=!1,l=0;l<c[d].length;++l){var f=c[d][l],h=f[0];if(null!==h){var g=f[2];var q=f[4].length,m=f[4][q-1]-g;g=0==m?f[5][q-1]:a<=g?f[5][0]:
a>=g+f[3]?0==f[3]%m?f[5][q-1]:U(f[3]%m,f):U((a-g)%m,f);0==h?(e._ks.mpath=f[8],e._ks.transform[h]=g,n=!0):14>=h?(e._ks.transform[h]=g,n=!0):(g=ea(f[1]&240,g),f[1]&1?e.setAttribute(h,g):e.style[h]=g)}}if(n){Y(e);n=e._ks.transform;l="";if(f=e._ks.mpath)g=n[0],0>g&&(g=0),100<g&&(g=100),g=g*f[2]/100,h=f[1].getPointAtLength(g),l="translate("+h.x+","+h.y+") ",f[0]&&(.5>g?(g=h,h=f[1].getPointAtLength(.5)):g=f[1].getPointAtLength(g-.5),l+="rotate("+180*Math.atan2(h.y-g.y,h.x-g.x)/Math.PI+") ");for(f=1;f<n.length;++f)h=
n[f],h!=(10==f||11==f?1:0)&&(l+=" "+ja[f]+"(",l=2>=f?l+(1==f?h+",0":"0,"+h):13<=f?l+(13==f?h+",0":"0,"+h):10<=f?l+(10==f?h+",1":"1,"+h):l+h,l+=")");e.setAttribute("transform",l)}}return"running"==this.m()},I:function(){!1!==this.l.autoremove&&"finished"==this.m()&&P(this)},D:function(){if(!this.F){this.F=!0;for(var a=this.A,b=this.C,c=0;c<a.length;++c)for(var d=a[c],e=0;e<b[c].length;++e)14>=b[c][e][0]&&Y(d)}},u:function(a){if("number"==typeof a)return a;if(!t(this.l.markers)||!t(this.l.markers[a]))throw Error("Invalid marker: "+
a);return+this.l.markers[a]},play:function(a){t(a)&&null!==a&&(a=this.u(a),H(a),0>this.b&&a<this.g&&(a=this.g),0<this.b&&a>this.f&&(a=this.f),this.w(a,!0));if(!this.i)throw Q;a=this.j();if(0<this.b&&(null===a||a>=this.f))this.a=this.g;else if(0>this.b&&(null===a||a<=this.g)){if(Infinity==this.f)throw Error("Cannot seek to Infinity");this.a=this.f}else 0==this.b&&null===a&&(this.a=this.g);if(null===this.a)return this;this.c=null;this.o=!0;this.D();N();return this},pause:function(a){if(!this.i)throw Q;
t(a)&&(a=this.u(a),H(a));if("paused"!=this.m()){L();var b=this.j();if(null===b)if(0<=this.b)this.a=this.g;else{if(Infinity==this.f)throw Error("Cannot seek to Infinity");this.a=this.f}null!==this.c&&null===this.a&&(this.a=b);this.c=null;this.o=!1;this.B(!1);this.D();N()}t(a)&&this.w(a,!0);return this},range:function(a,b){if(0==arguments.length)return{"in":this.g,out:this.f};var c=this.u(a),d=this.v;t(b)&&(d=this.u(b));H(c);if(0>c||0>d||c>=d||isNaN(d))throw Error("Invalid range");var e=this.m();this.g=
c;this.f=d;"finished"==e&&"running"==this.m()&&this.play();return this},loop:function(a){if(!t(a))return{count:this.h};this.h=!0===a?Infinity:Math.floor(a);if(0>this.h||isNaN(this.h))this.h=0;return this},j:function(){return null!==this.a?this.a:null===this.c?null:(v-this.c)*this.b},w:function(a,b){b&&L();null!==a&&(this.D(),null!==this.a||null===this.c||0==this.b?(this.a=a,O(!1)):this.c=v-a/this.b,this.i||(this.c=null),this.s=null,this.B(!0),N())},G:function(){return this.j()},time:function(a){if(t(a)){if(!this.i)throw Q;
a=this.u(a);H(a);this.w(a,!0);return this}return this.G()},m:function(){var a=this.j();return this.o?"running":null===a?"idle":null===this.c?"paused":0<this.b&&a>=this.f||0>this.b&&a<=this.g?"finished":"running"},state:function(){return this.m()},duration:function(){return this.v},H:function(a){H(a);L();var b=this.j();this.b=a;null!==b&&this.w(b,!1)},rate:function(a){return t(a)?(this.H(a),this):this.b},marker:function(a){return t(this.l.markers)?this.l.markers[a]:void 0},_cancel:function(){if(!this.i||
"idle"==this.m())return this;this.c=this.a=null;this.o=!1;return this}};return{version:"1.1.0",animate:function(){var a={};if(1==arguments.length%2){a=arguments[arguments.length-1];var b={};for(c in a)b[c]=a[c];a=b}var c=new Z(a);a=arguments;for(var d=b=0;d<a.length-1;d+=2){var e=a[d];var n=e instanceof Element?e:document.getElementById(e.substring(1));if(!n)throw Error("Invalid target: "+e);e=n;n=a[d+1];e._ks||(e._ks={});for(var l=[],f=0;f<n.length;++f){var h=n[f],g=J(h,"p","property");if("string"!=
typeof g||-1!=g.indexOf("-")||""===g||!(0<S[g]||0<=ba.indexOf(g)))throw Error("Invalid property: "+g);var q=ba.indexOf(g);""!==g&&0<=q&&(g=q);q=R(g);var m=J(h,"t","times");if(!m||2>m.length)throw Error("Not enough times");m=m.slice();if(!isFinite(m[0])||0>m[0])throw Error("Invalid time: "+m[0]);for(var B=1;B<m.length;++B)if(!isFinite(m[B])||0>m[B]||m[B]<m[B-1])throw Error("Invalid time: "+m[B]);B=m[0];var v=m[m.length-1]-B,y=h.iterations||0;1>y&&(y=1);v*=y;b<v+B&&(b=v+B);var u=J(h,"v","values");if(!u||
u.length!=m.length)throw Error("Values do not match times");u=u.slice();for(var C=g,k=u,w=R(C)&240,p=0;p<k.length;++p)if(96==w){for(var G=k[p].substring(6,k[p].length-2).match(/[A-DF-Za-df-z][-+0-9eE., ]*/ig),A=[],r=0;r<G.length;++r){A.push(G[r][0]);for(var z=1<G[r].trim().length?G[r].substring(1).split(","):[],F=0;F<z.length;++F)z[F]=parseFloat(z[F]);A.push(z)}k[p]=A}else if(48==w)x(k[p],"#")?(G=9==k[p].length,k[p]=parseInt(k[p].substring(1),16),G||(k[p]=256*k[p]|255)):x(k[p],"url(")||"none"==k[p]||
(console.warn("unsupported color: "+k[p]),k[p]=0);else if(80==w){G=k;A=p;r=k[p];if("none"==r)r=[0];else{z=[];for(var D=r.indexOf("(");0<D;)if(F=T.indexOf(r.substring(0,D)),0<=F){z.push(F);var E=r.indexOf(") ");0>E&&(E=r.length-1);D=r.substring(D+1,E).split(" ");5==F?(z.push(parseFloat(D[0])),z.push(parseFloat(D[1])),z.push(parseFloat(D[2])),z.push(ia(D[3]))):1==F?z.push(D[0]):z.push(parseFloat(D[0]));r=r.substring(E+1).trim();D=r.indexOf("(")}else break;r=z}G[A]=r}else 64==w?"none"!=k[p]?/^[0-9 .]*$/.test(k[p])?
k[p]=X(k[p]," "):(console.warn("unsupported value: "+k[p]),k[p]=[0]):k[p]=[0]:32==w?(H(k[p]),k[p]=parseFloat(k[p])):0===C&&(k[p]=parseFloat(k[p]));C=J(h,"e","easing");k=m.length;for(C||(C=[]);C.length<k;)C.push([1,0,0,.58,1]);for(k=0;k<C.length;++k)C[k]=ha(C[k]);q=[g,q,B,v,m,u,C,y];m=J(h,"mp","motionPath");t(m)&&0===g&&(q[8]=[],q[8][0]=h.motionRotate,h=document.createElementNS("http://www.w3.org/2000/svg","path"),m||(m="M0,0"),h.setAttribute("d",m),q[8][1]=h,q[8][2]=h.getTotalLength());l.push(q)}0<
l.length&&(c.A.push(e),c.C.push(l))}c.v=b;c.g=0;c.f=c.v;aa(c);return c},add:aa,remove:P,removeAll:function(){for(var a=w.length-1;0<=a;--a)P(w[a]);return this},timelines:function(){return w.slice()},globalPlay:function(){u&&(V=u-(new Date).getTime(),u=void 0,N());return this},globalPause:function(){u||(u=v,O(!1));return this},globalState:function(){return u?"paused":"running"}}}();
]]></script>
    <script><![CDATA[if(KeyshapeJS.version.indexOf('1.')!=0)throw Error('Expected KeyshapeJS v1.*.*');window.ks=document.ks=KeyshapeJS;(function(ks){
ks.animate("#_a0",[{p:'mpath',t:[300,1500],v:['0%','0%'],e:[[0],[0]],mp:"M31.5775,30.9744L31.5775,30.9744"}],
"#outline",[{p:'mpath',t:[0,1200,1500],v:['0%','0%','0%'],e:[[0],[0],[0]],mp:"M0,0L0,0L0,0"},{p:'opacity',t:[1000,1200],v:[1,0],e:[[0],[0]]}],
"#_a1",[{p:'mpath',t:[0,400,900,1400],v:['0%','18.91677%','37.830494%','100%'],e:[[0],[1,0,0,1,1],[1,0,0,1,1],[0]],mp:"M27.2183,37.435L37.6772,37.4525L27.22,37.44L46.3764,65.98"},{p:'rotate',t:[0,400,900,1400],v:[-13,13.6667,-13,14],e:[[0],[0],[1,0,0,0.58,1],[0]]},{p:'opacity',t:[2800,2900],v:[1,0],e:[[0],[0]]}],
"#_a2",[{p:'fill',t:[0,300],v:['#dbf3fb','#e5e5fd'],e:[[0],[0]]}],
"#_a3",[{p:'opacity',t:[900,1000],v:[0,1],e:[[0],[0]]}],
"#_a4",[{p:'opacity',t:[1000,1400,2800,2900],v:[0,1,1,0],e:[[0],[0],[0],[0]]}],
"#Artboard",[{p:'mpath',t:[800,1200,1600,2800,2900],v:['0%','6.824829%','100%','100%','100%'],e:[[0],[0],[0],[0],[0]],mp:"M21.9885,-25L21.9885,-22L21.9885,18.9571L21.9885,18.9571L21.9885,18.9571"}],
"#Combined-Shape",[{p:'opacity',t:[1300,1400,1600,2900],v:[1,1,0,0],e:[[0],[0],[0],[0]]}],
"#Shape",[{p:'opacity',t:[1900,2000,2800,2900],v:[1,0,0,0],e:[[0],[0],[0],[0]]}],
"#_a5",[{p:'opacity',t:[2000,2100,2800,2900],v:[0,1,1,0],e:[[0],[0],[0],[0]]}],
{autoremove:false}).range(0,2900).loop(true);
if(document.location.search.substr(1).split('&').indexOf('global=paused')>=0)ks.globalPause()})(KeyshapeJS);
]]></script>
</svg>
